<?xml version="1.0" encoding="UTF-8"?>
<!DOCTYPE svg PUBLIC "-//W3C//DTD SVG 1.1//EN" "http://www.w3.org/Graphics/SVG/1.1/DTD/svg11.dtd">
<!-- Creator: CorelDRAW X7 -->
<svg xmlns="http://www.w3.org/2000/svg" xml:space="preserve" width="522px" height="240px" version="1.1" style="shape-rendering:geometricPrecision; text-rendering:geometricPrecision; image-rendering:optimizeQuality; fill-rule:evenodd; clip-rule:evenodd"
viewBox="0 0 522 240"
 xmlns:xlink="http://www.w3.org/1999/xlink">
 <defs>
  <style type="text/css">
   <![CDATA[
    .fil1 {fill:#D1DC05}
    .fil0 {fill:#18B3AB}
    .fil2 {fill:#222222}
   ]]>
  </style>
 </defs>
 <g id="Layer_x0020_1">
  <metadata id="CorelCorpID_0Corel-Layer"/>
  <g id="_2319917645168">
   <path class="fil0" d="M155 203l0 0c0,20 -16,37 -36,37l0 0c-20,0 -37,-17 -37,-37l0 -73 73 73zm-36 -203l0 0c20,0 36,16 36,37l0 0 -73 73 0 -73c0,-21 17,-37 37,-37zm-119 120l0 0c0,-20 16,-37 37,-37l38 0 0 73 -38 0c-21,0 -37,-16 -37,-36z"/>
   <path class="fil1" d="M155 48l0 68 -68 0 68 -68zm8 -8c13,-12 35,-12 48,1l0 0c13,14 13,36 0,50l-26 25 -22 0 0 -76zm22 84l26 25c13,14 13,36 0,49l0 0c-13,14 -35,14 -48,1l0 -75 22 0zm-30 0l0 68 -68 -68 68 0z"/>
   <g>
    <path class="fil2" d="M266 43l0 10 10 -12c1,0 1,-1 2,-1 0,0 0,0 1,0 1,0 1,0 2,0 0,1 0,1 0,2 0,1 0,2 -1,2l-6 7 7 11c1,1 1,1 1,2 1,0 1,1 1,2 0,0 0,1 -1,1 0,1 -1,1 -2,1 0,0 -1,0 -1,-1 -1,0 -1,0 -2,-1 0,-1 0,-1 0,-1l-7 -11 -4 5 0 5c0,2 0,2 -1,3 0,1 -1,1 -1,1 -1,0 -1,0 -2,-1 0,0 0,0 -1,-1 0,0 0,0 0,-1 0,0 0,-1 0,-2l0 -20c0,-1 0,-2 1,-3 0,0 1,0 2,0 0,0 1,0 1,0 1,1 1,2 1,3zm38 1l-11 0 0 7 10 0c1,0 2,0 2,1 0,0 1,0 1,1 0,1 -1,1 -1,2 0,0 -1,0 -2,0l-10 0 0 8 12 0c0,0 1,0 1,1 1,0 1,1 1,1 0,1 0,1 -1,2 0,0 -1,0 -1,0l-14 0c-2,0 -2,0 -3,0 0,-1 -1,-2 -1,-3l0 -21c0,0 1,-1 1,-1 0,-1 0,-1 1,-2 0,0 1,0 2,0l13 0c1,0 2,0 2,1 0,0 1,1 1,1 0,1 -1,1 -1,2 0,0 -1,0 -2,0zm16 19l-4 -17 0 19c0,1 0,2 -1,2 0,1 -1,1 -2,1 0,0 -1,0 -1,-1 -1,0 -1,-1 -1,-2l0 -22c0,-1 0,-2 1,-2 0,-1 1,-1 2,-1l2 0c1,0 1,0 2,0 0,1 1,1 1,1 0,1 0,2 1,3l3 15 4 -15c0,-1 1,-2 1,-3 0,0 0,0 1,-1 0,0 1,0 2,0l1 0c1,0 2,0 3,1 0,0 1,1 1,2l0 22c0,1 -1,2 -1,2 0,1 -1,1 -2,1 0,0 -1,0 -1,-1 -1,0 -1,-1 -1,-2l0 -19 -4 17c0,1 -1,2 -1,3 0,0 0,1 -1,1 0,1 -1,1 -2,1 0,0 -1,0 -1,-1 -1,0 -1,0 -1,-1 0,0 -1,-1 -1,-1 0,-1 0,-1 0,-2zm38 -19l-12 0 0 7 11 0c1,0 1,0 2,1 0,0 0,0 0,1 0,1 0,1 0,2 -1,0 -1,0 -2,0l-11 0 0 8 12 0c1,0 2,0 2,1 0,0 1,1 1,1 0,1 -1,1 -1,2 0,0 -1,0 -2,0l-14 0c-1,0 -2,0 -2,0 -1,-1 -1,-2 -1,-3l0 -21c0,0 0,-1 0,-1 1,-1 1,-1 1,-2 1,0 1,0 2,0l14 0c1,0 1,0 2,1 0,0 0,1 0,1 0,1 0,1 0,2 -1,0 -1,0 -2,0zm14 -1l9 16 0 -16c0,-1 1,-2 1,-3 1,0 1,0 2,0 1,0 1,0 2,0 0,1 0,2 0,3l0 21c0,3 -1,4 -3,4 0,0 0,0 -1,0 0,-1 -1,-1 -1,-1 0,0 0,-1 -1,-1 0,-1 0,-1 -1,-1l-9 -16 0 16c0,1 -1,2 -1,2 0,1 -1,1 -2,1 0,0 -1,0 -1,-1 -1,-1 -1,-1 -1,-2l0 -21c0,-1 0,-2 0,-2 0,-1 1,-2 1,-2 1,0 1,0 2,0 0,0 1,0 1,0 0,0 1,0 1,1 0,0 0,0 1,1 0,0 0,0 1,1zm37 2l-6 0 0 19c0,2 0,2 -1,3 0,1 -1,1 -2,1 0,0 -1,0 -2,-1 0,-1 0,-1 0,-3l0 -19 -6 0c-1,0 -2,-1 -2,-1 0,0 -1,-1 -1,-2 0,0 1,-1 1,-1 1,-1 1,-1 2,-1l17 0c0,0 1,0 2,1 0,0 0,1 0,1 0,1 0,2 -1,2 0,0 -1,1 -1,1zm22 -1l-12 0 0 7 11 0c1,0 2,0 2,1 0,0 0,0 0,1 0,1 0,1 0,2 0,0 -1,0 -2,0l-11 0 0 8 12 0c1,0 2,0 2,1 1,0 1,1 1,1 0,1 0,1 -1,2 0,0 -1,0 -2,0l-14 0c-1,0 -2,0 -2,0 -1,-1 -1,-2 -1,-3l0 -21c0,0 0,-1 1,-1 0,-1 0,-1 1,-2 0,0 1,0 1,0l14 0c1,0 1,0 2,1 0,0 0,1 0,1 0,1 0,1 0,2 -1,0 -1,0 -2,0zm14 12l-2 0 0 8c0,2 0,2 -1,3 0,1 -1,1 -1,1 -1,0 -2,0 -2,-1 -1,-1 -1,-1 -1,-3l0 -21c0,-1 0,-2 1,-2 0,-1 1,-1 2,-1l9 0c1,0 2,0 3,0 0,0 1,1 2,1 1,0 1,1 2,1 1,1 1,2 1,3 1,1 1,2 1,3 0,2 -1,3 -2,4 -1,2 -3,3 -5,3 1,1 2,1 3,2 1,1 2,2 2,4 1,1 1,2 2,3 0,1 0,1 0,2 0,0 0,0 0,1 0,0 -1,0 -1,1 0,0 -1,0 -1,0 -1,0 -1,0 -2,-1 0,0 0,0 -1,-1 0,0 0,-1 -1,-2l-2 -3c-1,-2 -1,-3 -2,-3 -1,-1 -1,-2 -2,-2 0,0 -1,0 -2,0zm3 -12l-5 0 0 8 5 0c1,0 2,0 3,-1 1,0 1,0 2,-1 0,0 1,-1 1,-2 0,-1 -1,-1 -1,-2 0,-1 -1,-1 -1,-1 -1,-1 -2,-1 -4,-1zm16 20l0 -21c0,-1 0,-2 1,-3 0,0 1,0 1,0 1,0 2,0 2,0 1,1 1,2 1,3l0 21c0,2 0,2 -1,3 0,1 -1,1 -2,1 0,0 -1,0 -1,-1 -1,-1 -1,-1 -1,-3zm27 0l-1 -3 -10 0 -2 3c0,2 0,3 -1,3 0,1 -1,1 -1,1 -1,0 -2,0 -2,-1 -1,0 -1,-1 -1,-2 0,0 0,0 0,-1 0,0 1,-1 1,-1l6 -18c1,-1 1,-1 1,-2 0,-1 1,-1 1,-2 0,0 1,-1 1,-1 0,0 1,0 2,0 1,0 1,0 2,0 0,0 0,1 1,1 0,1 0,1 1,2 0,0 0,1 0,2l7 17c0,2 1,3 1,3 0,1 0,2 -1,2 0,1 -1,1 -2,1 0,0 -1,0 -1,0 0,-1 0,-1 -1,-1 0,0 0,-1 0,-1 0,-1 -1,-1 -1,-2zm-10 -7l8 0 -4 -12 -4 12zm26 -14l10 16 0 -16c0,-1 0,-2 1,-3 0,0 1,0 2,0 0,0 1,0 1,0 1,1 1,2 1,3l0 21c0,3 -1,4 -3,4 0,0 -1,0 -1,0 0,-1 -1,-1 -1,-1 0,0 -1,-1 -1,-1 0,-1 -1,-1 -1,-1l-10 -16 0 16c0,1 0,2 0,2 -1,1 -1,1 -2,1 -1,0 -1,0 -2,-1 0,-1 0,-1 0,-2l0 -21c0,-1 0,-2 0,-2 0,-1 0,-2 1,-2 1,0 1,0 2,0 0,0 1,0 1,0 0,0 0,0 1,1 0,0 0,0 0,1 1,0 1,0 1,1zm-241 44l0 10 10 -12c1,0 1,-1 2,-1 0,0 0,0 1,0 1,0 1,0 2,0 0,1 0,1 0,2 0,1 0,2 -1,3l-6 6 7 11c1,1 1,1 1,2 1,1 1,1 1,2 0,0 0,1 -1,1 0,1 -1,1 -2,1 0,0 -1,0 -1,0 -1,-1 -1,-1 -2,-2 0,0 0,-1 0,-1l-7 -10 -4 4 0 6c0,1 0,2 -1,2 0,1 -1,1 -1,1 -1,0 -1,0 -2,0 0,-1 0,-1 -1,-1 0,-1 0,-1 0,-2 0,0 0,-1 0,-2l0 -20c0,-1 0,-2 1,-2 0,-1 1,-1 2,-1 0,0 1,0 1,1 1,0 1,1 1,2zm38 1l-11 0 0 7 10 0c1,0 2,0 2,1 0,0 1,1 1,1 0,1 -1,1 -1,2 0,0 -1,0 -2,0l-10 0 0 8 12 0c0,0 1,0 1,1 1,0 1,1 1,1 0,1 0,2 -1,2 0,0 -1,1 -1,1l-14 0c-2,0 -2,-1 -3,-1 0,-1 -1,-2 -1,-3l0 -20c0,-1 1,-2 1,-2 0,-1 0,-1 1,-1 0,-1 1,-1 2,-1l13 0c1,0 2,0 2,1 0,0 1,1 1,1 0,1 -1,2 -1,2 0,0 -1,0 -2,0zm27 15c0,2 -1,3 -2,5 0,1 -2,2 -3,3 -2,1 -3,1 -6,1 -2,0 -4,-1 -6,-2 -1,0 -2,-1 -3,-2 0,-2 -1,-3 -1,-4 0,-1 1,-1 1,-2 0,0 1,0 2,0 0,0 1,0 1,0 0,0 1,1 1,2 0,1 1,1 1,2 0,1 1,1 2,1 0,1 1,1 2,1 2,0 3,0 4,-1 1,-1 2,-2 2,-3 0,-1 -1,-2 -1,-2 -1,-1 -1,-1 -2,-2 -1,0 -2,0 -4,-1 -1,0 -3,-1 -4,-1 -1,-1 -2,-2 -3,-3 -1,-1 -1,-2 -1,-4 0,-1 0,-2 1,-4 1,-1 2,-2 3,-2 2,-1 3,-1 5,-1 2,0 3,0 5,0 1,1 2,1 2,2 1,1 2,1 2,2 0,1 1,2 1,2 0,1 -1,2 -1,2 -1,1 -1,1 -2,1 0,0 -1,0 -1,0 0,-1 -1,-1 -1,-2 -1,-1 -1,-2 -2,-2 0,-1 -1,-1 -3,-1 -1,0 -2,0 -3,1 -1,0 -1,1 -1,2 0,0 0,1 0,1 0,1 1,1 1,1 1,1 1,1 2,1 0,0 1,0 2,1 2,0 3,0 4,1 1,0 2,1 3,1 1,1 1,2 2,3 0,1 1,2 1,3zm21 -15l-12 0 0 7 11 0c1,0 1,0 2,1 0,0 0,1 0,1 0,1 0,1 0,2 -1,0 -1,0 -2,0l-11 0 0 8 12 0c1,0 2,0 2,1 1,0 1,1 1,1 0,1 0,2 -1,2 0,0 -1,1 -2,1l-14 0c-1,0 -2,-1 -2,-1 -1,-1 -1,-2 -1,-3l0 -20c0,-1 0,-2 0,-2 1,-1 1,-1 1,-1 1,-1 1,-1 2,-1l14 0c1,0 1,0 2,1 0,0 0,1 0,1 0,1 0,2 0,2 -1,0 -1,0 -2,0zm12 -1l0 8 11 0 0 -8c0,-1 0,-2 1,-2 0,-1 1,-1 2,-1 1,0 1,0 2,1 0,0 0,1 0,2l0 22c0,1 0,2 0,2 -1,1 -1,1 -2,1 -1,0 -2,0 -2,-1 -1,0 -1,-1 -1,-2l0 -10 -11 0 0 10c0,1 0,2 -1,2 0,1 -1,1 -2,1 0,0 -1,0 -1,-1 -1,0 -1,-1 -1,-2l0 -22c0,-1 0,-2 1,-2 0,-1 1,-1 1,-1 1,0 2,0 2,1 1,0 1,1 1,2zm38 21l-1 -3 -10 0 -2 4c0,1 0,2 -1,2 0,1 -1,1 -1,1 -1,0 -2,0 -2,-1 -1,0 -1,-1 -1,-1 0,-1 0,-1 0,-2 0,0 1,-1 1,-1l6 -18c1,-1 1,-1 1,-2 0,-1 1,-1 1,-2 0,0 1,-1 1,-1 1,0 1,0 2,0 1,0 1,0 2,0 0,0 1,1 1,1 0,1 0,1 1,2 0,0 0,1 0,2l7 18c1,1 1,2 1,2 0,1 0,2 -1,2 0,1 -1,1 -2,1 0,0 0,0 -1,0 0,0 0,-1 0,-1 -1,0 -1,-1 -1,-1 0,-1 -1,-1 -1,-2zm-10 -7l8 0 -4 -11 -4 11zm33 -12l-6 0 0 20c0,1 0,2 0,2 -1,1 -1,1 -2,1 -1,0 -2,0 -2,-1 0,0 -1,-1 -1,-2l0 -20 -5 0c-1,0 -2,0 -2,-1 -1,0 -1,-1 -1,-1 0,-1 0,-2 1,-2 0,-1 1,-1 2,-1l16 0c1,0 2,0 2,1 1,0 1,1 1,2 0,0 0,1 -1,1 0,1 -1,1 -2,1zm20 19l-1 -3 -11 0 -1 4c0,1 -1,2 -1,2 0,1 -1,1 -2,1 0,0 -1,0 -1,-1 -1,0 -1,-1 -1,-1 0,-1 0,-1 0,-2 0,0 0,-1 1,-1l6 -18c0,-1 0,-1 1,-2 0,-1 0,-1 1,-2 0,0 0,-1 1,-1 0,0 1,0 1,0 1,0 2,0 2,0 1,0 1,1 1,1 1,1 1,1 1,2 0,0 1,1 1,2l7 18c0,1 0,2 0,2 0,1 0,2 0,2 -1,1 -1,1 -2,1 0,0 -1,0 -1,0 0,0 -1,-1 -1,-1 0,0 0,-1 0,-1 -1,-1 -1,-1 -1,-2zm-10 -7l7 0 -4 -11 -3 11zm26 -14l10 16 0 -16c0,-1 0,-2 1,-2 0,-1 1,-1 1,-1 1,0 2,0 2,1 0,0 1,1 1,2l0 21c0,3 -1,4 -3,4 -1,0 -1,0 -1,0 -1,0 -1,-1 -1,-1 -1,0 -1,-1 -1,-1 -1,0 -1,-1 -1,-1l-10 -16 0 16c0,1 0,2 -1,2 0,1 -1,1 -1,1 -1,0 -2,0 -2,-1 0,0 -1,-1 -1,-2l0 -21c0,-1 0,-2 1,-2 0,-1 0,-1 1,-2 0,0 1,0 1,0 1,0 1,0 2,0 0,0 0,0 0,1 1,0 1,0 1,1 0,0 1,1 1,1zm-193 57l-2 0 0 9c0,1 0,2 -1,2 0,1 -1,1 -1,1 -1,0 -2,0 -2,-1 -1,0 -1,-1 -1,-2l0 -21c0,-1 0,-2 1,-3 0,0 1,-1 2,-1l9 0c1,0 2,0 3,1 0,0 1,0 2,0 1,1 1,1 2,2 0,0 1,1 1,2 1,1 1,2 1,3 0,2 -1,4 -2,5 -1,1 -3,2 -5,2 1,1 2,2 3,3 1,1 1,2 2,3 1,1 1,2 2,3 0,1 0,2 0,2 0,0 0,1 0,1 0,0 -1,1 -1,1 0,0 -1,0 -1,0 -1,0 -1,0 -2,0 0,-1 0,-1 -1,-1 0,-1 0,-1 -1,-2l-2 -4c-1,-1 -1,-2 -2,-3 -1,-1 -1,-1 -2,-2 0,0 -1,0 -2,0zm3 -11l-5 0 0 7 5 0c1,0 2,0 3,0 1,-1 1,-1 2,-1 0,-1 1,-2 1,-3 0,-1 -1,-1 -1,-2 0,0 -1,-1 -2,-1 0,0 -1,0 -3,0zm32 0l-11 0 0 6 11 0c0,0 1,1 1,1 1,0 1,1 1,1 0,1 0,2 -1,2 0,0 -1,1 -1,1l-11 0 0 7 12 0c1,0 1,1 2,1 0,0 0,1 0,2 0,0 0,1 0,1 -1,0 -1,1 -2,1l-14 0c-1,0 -2,-1 -3,-1 0,-1 0,-2 0,-3l0 -20c0,-1 0,-2 0,-2 0,-1 1,-1 1,-1 0,-1 1,-1 2,-1l13 0c1,0 2,1 2,1 1,0 1,1 1,2 0,0 0,1 -1,1 0,0 -1,1 -2,1zm17 12l-4 0 0 8c0,1 -1,2 -1,2 -1,1 -1,1 -2,1 -1,0 -1,0 -2,-1 0,0 -1,-1 -1,-2l0 -21c0,-1 1,-2 1,-3 1,0 2,-1 3,-1l6 0c2,0 4,1 5,1 1,0 2,1 3,1 0,1 1,2 1,3 1,1 1,2 1,4 0,2 -1,4 -2,6 -2,1 -4,2 -8,2zm-1 -12l-3 0 0 8 3 0c1,0 2,0 3,-1 1,0 2,0 2,-1 1,0 1,-1 1,-2 0,-2 -1,-2 -1,-3 -1,-1 -3,-1 -5,-1zm15 11l0 -13c0,-1 1,-2 1,-2 0,-1 1,-1 2,-1 1,0 1,0 2,1 0,0 0,1 0,2l0 14c0,1 1,3 1,4 0,1 1,1 2,2 0,0 2,1 3,1 2,0 4,-1 4,-2 1,-1 2,-3 2,-5l0 -14c0,-1 0,-2 0,-2 1,-1 1,-1 2,-1 1,0 2,0 2,1 1,0 1,1 1,2l0 13c0,3 0,4 -1,6 0,1 -1,2 -2,4 -1,0 -2,1 -3,2 -1,0 -3,0 -5,0 -2,0 -3,0 -5,-1 -1,0 -2,-1 -3,-2 -1,-1 -2,-2 -2,-3 0,-2 -1,-4 -1,-6z"/>
    <path class="fil2" d="M372 156l-7 0c-2,0 -2,-1 -3,-1 0,-1 -1,-2 -1,-3l0 -20c0,-1 1,-2 1,-3 1,0 1,-1 3,-1l8 0c1,0 2,0 3,1 1,0 2,0 2,1 1,0 2,0 2,1 0,1 1,1 1,2 0,1 0,1 0,2 0,3 -1,5 -3,6 3,1 5,4 5,7 0,1 -1,3 -1,4 -1,1 -2,2 -3,3 -1,0 -2,0 -3,0 -1,1 -2,1 -4,1zm0 -12l-5 0 0 8 5 0c4,0 5,-2 5,-5 0,-1 0,-2 -1,-3 -1,0 -2,0 -4,0zm-5 -11l0 7 4 0c2,0 3,-1 3,-1 1,0 2,-1 2,-1 0,-1 0,-1 0,-2 0,-1 0,-2 -1,-3 -1,0 -2,0 -4,0l-4 0zm25 -2l0 20 11 0c0,0 1,0 2,1 0,0 0,1 0,1 0,1 0,2 0,2 -1,0 -2,1 -2,1l-13 0c-1,0 -2,-1 -2,-1 -1,-1 -1,-2 -1,-3l0 -21c0,-1 0,-2 1,-2 0,-1 1,-1 2,-1 0,0 1,0 1,1 1,0 1,1 1,2zm17 22l0 -22c0,-1 0,-2 1,-2 0,-1 1,-1 1,-1 1,0 2,0 2,1 1,0 1,1 1,2l0 22c0,1 0,2 -1,2 0,1 -1,1 -2,1 0,0 -1,0 -1,-1 -1,0 -1,-1 -1,-2zm16 -22l0 10 10 -11c1,-1 1,-1 1,-2 1,0 1,0 2,0 1,0 1,0 2,1 0,0 0,1 0,1 0,1 0,2 -1,3l-6 6 7 11c1,1 1,2 1,2 1,1 1,1 1,2 0,1 -1,1 -1,1 0,1 -1,1 -2,1 -1,0 -1,0 -2,0 0,-1 0,-1 -1,-2 0,0 0,-1 -1,-1l-6 -10 -4 4 0 6c0,1 0,2 -1,2 0,1 -1,1 -2,1 0,0 0,0 -1,0 0,0 -1,-1 -1,-1 0,-1 0,-1 0,-1 0,-1 0,-2 0,-2l0 -21c0,-1 0,-2 1,-2 0,-1 1,-1 1,-1 1,0 2,0 2,1 1,0 1,1 1,2zm-164 66l0 -22c0,-1 0,-2 1,-2 0,-1 1,-1 2,-1 1,0 1,0 2,1 0,0 0,1 0,2l0 22c0,1 0,2 0,2 -1,1 -1,1 -2,1 -1,0 -2,0 -2,-1 -1,0 -1,-1 -1,-2zm18 -22l10 16 0 -16c0,-1 0,-2 1,-2 0,-1 0,-1 1,-1 1,0 2,0 2,1 0,0 1,1 1,2l0 22c0,2 -1,3 -3,3 -1,0 -1,0 -1,0 -1,0 -1,0 -1,-1 -1,0 -1,0 -1,-1 -1,0 -1,-1 -1,-1l-10 -16 0 16c0,1 0,2 -1,3 0,0 -1,0 -1,0 -1,0 -2,0 -2,0 -1,-1 -1,-2 -1,-3l0 -21c0,-1 0,-2 1,-2 0,-1 0,-1 1,-1 0,-1 1,-1 1,-1 1,0 1,0 1,0 1,0 1,1 1,1 1,0 1,1 1,1 0,0 1,1 1,1zm23 -2l7 0c2,0 3,0 5,0 1,0 2,1 3,2 3,2 4,6 4,11 0,2 0,3 0,5 0,1 -1,2 -1,3 -1,1 -2,2 -3,3 0,1 -1,1 -2,2 -1,0 -2,0 -2,1 -1,0 -2,0 -4,0l-6 0c-1,0 -2,0 -3,-1 0,0 0,0 0,-1 -1,0 -1,-1 -1,-2l0 -20c0,-1 1,-2 1,-3 1,0 1,0 2,0zm2 4l0 18 4 0c1,0 2,0 2,0 1,0 1,0 2,0 0,0 1,0 1,-1 2,-1 3,-4 3,-8 0,-3 0,-5 -1,-6 -1,-1 -2,-2 -3,-3 -1,0 -3,0 -4,0l-4 0zm33 -5c3,0 5,1 7,2 2,1 3,3 4,5 1,2 2,4 2,7 0,2 -1,4 -1,6 -1,2 -2,3 -3,4 -1,2 -2,3 -4,3 -1,1 -3,1 -5,1 -2,0 -4,0 -5,-1 -2,0 -3,-1 -4,-3 -1,-1 -2,-2 -3,-4 0,-2 0,-4 0,-6 0,-2 0,-4 0,-6 1,-1 2,-3 3,-4 1,-1 2,-2 4,-3 1,-1 3,-1 5,-1zm7 14c0,-2 0,-4 -1,-5 0,-2 -1,-3 -2,-3 -1,-1 -3,-2 -4,-2 -1,0 -2,1 -3,1 -1,1 -2,1 -2,2 -1,1 -1,2 -2,3 0,1 0,3 0,4 0,2 0,3 0,4 1,2 1,3 2,3 1,1 1,2 2,2 1,1 2,1 3,1 1,0 3,0 4,-1 1,-1 2,-2 2,-3 1,-2 1,-4 1,-6zm17 -11l10 16 0 -16c0,-1 0,-2 0,-2 1,-1 1,-1 2,-1 1,0 1,0 2,1 0,0 0,1 0,2l0 22c0,2 0,3 -2,3 -1,0 -1,0 -2,0 0,0 0,0 -1,-1 0,0 0,0 -1,-1 0,0 0,-1 0,-1l-10 -16 0 16c0,1 0,2 -1,3 0,0 -1,0 -2,0 0,0 -1,0 -1,0 -1,-1 -1,-2 -1,-3l0 -21c0,-1 0,-2 0,-2 1,-1 1,-1 1,-1 1,-1 1,-1 2,-1 1,0 1,0 1,0 1,0 1,1 1,1 0,0 1,1 1,1 0,0 0,1 1,1zm37 2l-12 0 0 7 11 0c1,0 1,0 2,0 0,0 0,1 0,2 0,0 0,1 0,1 -1,0 -1,1 -2,1l-11 0 0 7 12 0c1,0 2,1 2,1 1,0 1,1 1,2 0,0 0,1 -1,1 0,1 -1,1 -2,1l-14 0c-1,0 -2,0 -2,-1 -1,0 -1,-1 -1,-3l0 -20c0,-1 0,-2 0,-2 1,-1 1,-1 1,-1 1,0 2,0 2,0l14 0c1,0 1,0 2,0 0,1 0,1 0,2 0,0 0,1 0,1 -1,1 -1,1 -2,1zm26 15c0,1 0,3 -1,4 -1,1 -2,2 -3,3 -2,1 -4,1 -6,1 -2,0 -4,0 -6,-1 -1,-1 -2,-2 -3,-3 -1,-1 -1,-3 -1,-4 0,0 0,-1 1,-1 0,-1 1,-1 1,-1 1,0 1,0 2,0 0,1 0,1 1,2 0,1 0,2 1,2 0,1 1,1 1,2 1,0 2,0 3,0 2,0 3,0 4,-1 1,-1 1,-2 1,-3 0,-1 0,-1 -1,-2 0,-1 -1,-1 -2,-1 0,-1 -1,-1 -3,-1 -2,-1 -3,-1 -4,-2 -2,0 -3,-1 -3,-2 -1,-1 -1,-3 -1,-4 0,-2 0,-3 1,-4 0,-1 2,-2 3,-3 1,-1 3,-1 5,-1 2,0 3,0 4,1 1,0 2,1 3,1 1,1 1,2 2,3 0,0 0,1 0,2 0,0 0,1 0,2 -1,0 -1,0 -2,0 -1,0 -1,0 -1,0 -1,0 -1,-1 -1,-2 -1,-1 -1,-2 -2,-2 -1,-1 -2,-1 -3,-1 -2,0 -3,0 -3,1 -1,1 -2,1 -2,2 0,1 0,1 1,2 0,0 0,0 1,1 0,0 1,0 1,0 1,0 2,1 3,1 1,0 3,1 4,1 1,1 2,1 3,2 1,0 1,1 2,2 0,1 0,2 0,4zm5 5l0 -22c0,-1 0,-2 1,-2 0,-1 1,-1 2,-1 0,0 1,0 1,1 1,0 1,1 1,2l0 22c0,1 0,2 -1,2 0,1 -1,1 -1,1 -1,0 -2,0 -2,-1 -1,0 -1,-1 -1,-2zm27 0l-1 -4 -10 0 -2 4c0,1 0,2 -1,3 0,0 -1,0 -1,0 -1,0 -2,0 -2,0 -1,-1 -1,-2 -1,-2 0,-1 0,-1 0,-1 0,-1 1,-1 1,-2l6 -18c1,0 1,-1 1,-2 0,0 1,-1 1,-1 0,-1 1,-1 1,-1 1,-1 1,-1 2,-1 1,0 1,0 2,1 0,0 1,0 1,1 0,0 0,1 1,1 0,1 0,1 0,2l7 18c1,1 1,2 1,3 0,0 0,1 -1,2 0,0 -1,0 -2,0 0,0 0,0 -1,0 0,0 0,0 -1,-1 0,0 0,0 0,-1 0,0 -1,-1 -1,-1zm-10 -8l8 0 -4 -11 -4 11z"/>
   </g>
  </g>
 </g>
</svg>
